<svg fill="none" opacity=".25" viewBox="0 0 301 301" width="301" xmlns="http://www.w3.org/2000/svg" xmlns:xlink="http://www.w3.org/1999/xlink"><clipPath id="a"><path d="m0 0h300v300h-300z" transform="translate(.78 .144)"/></clipPath><g clip-path="url(#a)" fill="#fff"><path d="m92.96-11.487 4.24 11.22 1.06 2.87a2.55 2.55 0 0 0 -1.09 2.1 2.58 2.58 0 0 0 5.08.65h4.82a2.604 2.604 0 0 0 2.69 2.14 2.602 2.602 0 0 0 2.462-2.397 2.598 2.598 0 0 0 -3.881-2.458 2.606 2.606 0 0 0 -1.171 1.415h-4.92a2.568 2.568 0 0 0 -2.49-1.93h-.28l-.93-2.39h13.7l4.23-11.22h-22.13l-3.35-8.86h-4v1.3h3.06zm16.65 15a1.289 1.289 0 1 1 -1.29 1.28 1.295 1.295 0 0 1 1.29-1.19zm-9.85-.17a1.287 1.287 0 0 1 1.177 1.285 1.29 1.29 0 1 1 -1.177-1.285zm14.84-13.57-3.25 8.62h-13.25l-3.26-8.62zm-66.75 294.421.32.14.22-.06c.46-.12 11.14-3.23 11-22.47l-.1-.65h-.65c-5.27 0-10-4.06-10.07-4.1l-.42-.37-.43.37s-4.92 4.14-10.26 4.14h-.65v.65c-.04 19.25 10.68 22.27 11.04 22.35zm.25-25.8c1.29 1 5.31 3.84 10 4 0 16.46-8.39 20-9.81 20.52-.6-.18-9.94-3.27-10.16-20.47 4.6-.21 8.67-3.05 9.97-4.05zm13.95-252.991h.65v-16h-.65a8 8 0 0 0 -4.28 1.2v-4.85a12.86 12.86 0 0 1 25.71 0v4.85a8 8 0 0 0 -4.28-1.25h-.65v16h.65a8 8 0 0 0 5.58-13.74v-5.86a14.16 14.16 0 0 0 -28.31 0v5.91a8 8 0 0 0 5.58 13.74zm23.86-8a6.72 6.72 0 0 1 -6.06 6.68v-13.36a6.71 6.71 0 0 1 6.06 6.67zm-24.51-6.67v13.34a6.71 6.71 0 0 1 0-13.35zm-63.54 8.991v7.37l5.23-5.24a20.63 20.63 0 0 0 4.85.58c9 0 16.32-5.68 16.32-12.65s-7.32-12.65-16.32-12.65-16.31 5.68-16.31 12.65c0 3.93 2.26 7.53 6.23 9.94zm10.08-21.29c8.28 0 15 5.09 15 11.35s-6.73 11.35-15 11.35a19.45 19.45 0 0 1 -4.89-.62l-.36-.1-3.53 3.54v-5l-.33-.19c-3.75-2.17-5.9-5.45-5.9-9 0-6.24 6.74-11.33 15.01-11.33zm289.92 21.29v7.37l5.23-5.24a20.63 20.63 0 0 0 4.85.58c9 0 16.32-5.68 16.32-12.65s-7.32-12.65-16.32-12.65-16.31 5.68-16.31 12.65c0 3.93 2.26 7.53 6.23 9.94zm10.08-21.29c8.28 0 15 5.09 15 11.35s-6.73 11.35-15 11.35a19.453 19.453 0 0 1 -4.89-.62l-.36-.1-3.53 3.54v-5l-.33-.19c-3.75-2.17-5.9-5.45-5.9-9 0-6.24 6.74-11.33 15.01-11.33zm-45.02 295.269a14.15 14.15 0 1 0 -14.15-14.1 14.172 14.172 0 0 0 14.15 14.1zm-12.82-14.8a12.842 12.842 0 0 1 12.17-12.17v4.31h1.28v-4.31a12.844 12.844 0 0 1 12.16 12.17h-4.31v1.3h4.31a12.842 12.842 0 0 1 -12.16 12.16v-4.3h-1.3v4.3a12.838 12.838 0 0 1 -12.17-12.16h4.31v-1.3z"/><path d="m270.91 251.604-10.11 5.88-5.88 10.11 10.11-5.88zm-12.36 12.35 2.9-5 2.09 2.09zm3.82-5.91 5-2.9-2.9 5zm-251.44-50.371h-16.56v-7.6a6.16 6.16 0 0 1 12.32 0v3.38h1.3v-3.38a7.46 7.46 0 0 0 -14.92 0v7.6h-2.94v18.13h20.8zm-1.3 16.83h-18.2v-15.53h18.2z"/><path d="m-1.9 221.304h4.86l-.82-4.59a2.568 2.568 0 0 0 -.124-4.101 2.573 2.573 0 0 0 -3.91 1.244 2.57 2.57 0 0 0 .814 2.857zm2.45-7.83a1.246 1.246 0 0 1 1.229.947 1.248 1.248 0 0 1 -.639 1.413l-.42.22.71 4h-1.78l.71-4-.42-.22a1.251 1.251 0 0 1 .59-2.36zm269.76-207.511c2.27 0 4.11-1.42 4.11-3.17v-14.87l12.71-1.59v12.41a4.741 4.741 0 0 0 -2.81-.87c-2.27 0-4.11 1.42-4.11 3.17s1.84 3.18 4.11 3.18 4.11-1.43 4.11-3.18v-19.92l-15.31 1.91v17.45a4.739 4.739 0 0 0 -2.81-.87c-2.27 0-4.11 1.42-4.11 3.18s1.84 3.17 4.11 3.17zm14-3c-1.52 0-2.81-.86-2.81-1.88s1.29-1.87 2.81-1.87 2.81.85 2.81 1.87-1.27 1.84-2.8 1.84zm-9.9-18.75 12.72-1.61v2.43l-12.71 1.57zm-4.11 16.74c1.53 0 2.81.86 2.81 1.88s-1.28 1.87-2.81 1.87-2.75-.9-2.75-1.91 1.24-1.88 2.76-1.88l-.01.04zm-273.89 61.15a14.79 14.79 0 0 1 12.14 11.89l1.28-.23a16.1 16.1 0 0 0 -13.22-12.94z"/><path d="m-2.38 55.144-.21 1.29a20.549 20.549 0 0 1 16.83 16.52l1.27-.23a21.85 21.85 0 0 0 -17.89-17.58zm-8.26 3.349-.59.27-1.32.6c-1 .45-2.21 1-2.56 1.17a5.24 5.24 0 0 0 -2.84 6.26 29.84 29.84 0 0 0 6.15 11.09 30.382 30.382 0 0 0 5.77 5.27 28.73 28.73 0 0 0 8.83 4.45c.481.138.98.21 1.48.21a5.533 5.533 0 0 0 1.69-.27c2.29-.73 3.18-2.6 3.95-4.59l1.12-2.73-9.49-4.41-1.6 3.43c-4.31-1.46-8.8-7.46-9.69-9.55l3.51-1.64zm-.5 11c.36 2.07 6 9.87 11.32 11.2l.52.13 1.52-3.24 7.15 3.33-.66 1.59c-.7 1.83-1.38 3.27-3.14 3.83a4.08 4.08 0 0 1 -2.42 0 27.302 27.302 0 0 1 -8.43-4.25 28.715 28.715 0 0 1 -5.52-5 28.24 28.24 0 0 1 -5.9-10.6 4 4 0 0 1 2.16-4.74c.35-.17 1.55-.71 2.52-1.15l.75-.34 3.35 7.21-3.3 1.54zm45.57 168.571h-17.94v-8.64h-18.57v8.64h-17.94v37.14h54.45zm-35.2-7.34h16v7.34h-16zm33.9 43.18h-51.85v-21.72l20.15 5.24v2.08l5.78 2.52 5.77-2.52v-2.08l20.15-5.24zm-30.4-15.25v-3.24h9v3.24l-4.52 1.95zm30.4-7.81-20.15 5.24v-2h-11.55v2l-20.15-5.24v-11.48h51.85zm-10.45-251.151a5 5 0 0 0 .7 4.34 7.88 7.88 0 0 0 3.81 2.77h-10.64v11.34h3.3v23.05h32.19v-23.05h3.3v-11.34h-10.72a8 8 0 0 0 3.81-2.76 5 5 0 0 0 .7-4.35c-.93-2.34-2.61-3.62-4.72-3.62-3.26 0-7 3.15-8.52 7.56-1.49-4.34-5.27-7.56-8.49-7.56-2.11 0-3.79 1.28-4.72 3.62zm8.27 40.2h-9.83v-21.75h9.83zm0-23.05h-13.14v-8.74h13.14zm19.74 23.05h-9.83v-21.75h9.83zm3.31-31.79v8.74h-13.14v-8.74zm-9.59-10.73c1.57 0 2.78 1 3.51 2.8a3.75 3.75 0 0 1 -.57 3.13c-1 1.55-3.78 3.39-10.77 3.5.32-5.15 4.44-9.43 7.83-9.43zm-8.5 10.73h3.64v31.79h-7.3v-31.79zm-8.51-10.73c3.39 0 7.51 4.28 7.83 9.43-7-.11-9.72-2-10.77-3.5a3.708 3.708 0 0 1 -.57-3.13c.73-1.83 1.94-2.8 3.51-2.8zm-26.85 54.801a5.72 5.72 0 0 0 5.68-5.06h5.42v-35.11h-40.1v8.6h-14.16l-7.84 11.71v14.8h8.41a5.71 5.71 0 0 0 11.34 0h25.54a5.73 5.73 0 0 0 5.71 5.06zm-45.21-26.17h4.72v5.86h-8.64zm8.29 24.87a4.42 4.42 0 1 1 -.02-8.84 4.42 4.42 0 0 1 .02 8.84zm7.92-5.06h-2.25a5.71 5.71 0 0 0 -11.34 0h-7.11v-12.65h10.51v-8.46h-5.15l1.88-2.8h13.46zm29 5.06a4.42 4.42 0 1 1 0-8.84 4.42 4.42 0 0 1 0 8.84zm9.84-5.06h-.86v-5.78h.86zm-37.53-25.21v-7.3h37.49v25.43h-2.17v7.08h-2a5.71 5.71 0 0 0 -11.35 0h-22zm304.24 202.099 6-3.44v-9.25l-4.429-2.6v9.29l-4.36 2.52-4.36-2.52v-9.29l-4.43 2.6v9.25l6 3.44v20.75h5.639zm-1.299 19.45h-3v-20.2l-6-3.44v-7.75l1.829-1.08v7.77l5.66 3.27 5.661-3.27v-7.77l1.83 1.08v7.75l-6 3.44zm-42.101-239.349.21-1.28a58.82 58.82 0 0 0 -18.68 0l.2 1.29a57.72 57.72 0 0 1 18.27-.01z"/><path d="m224.47 10.664a29.996 29.996 0 0 1 12.41 2.66l.92.42v-.58a30.213 30.213 0 0 1 24.45.16l.92.42v-36.24l-.39-.17a31.517 31.517 0 0 0 -25.63-.11 31.5 31.5 0 0 0 -25.6.11l-.39.17v36.24l.92-.42a30.002 30.002 0 0 1 12.39-2.66zm13.33-32.3a30.16 30.16 0 0 1 24.07 0v33.38a31.56 31.56 0 0 0 -24.07 0zm-25.37 0a30.221 30.221 0 0 1 24.07 0v33.38a31.62 31.62 0 0 0 -24.07 0z"/><path d="m259.07 1.484a58.82 58.82 0 0 0 -18.68 0l.21 1.28a57.72 57.72 0 0 1 18.27 0zm-68.03 126.73h-.11l-.14.23c-.27.24-.53.49-.79.75l-.1.1-.48.49c-.07.06-.1.11-.09.11a25.827 25.827 0 0 0 -7 17.68v.11a25.78 25.78 0 0 0 7.25 17.85.979.979 0 0 0 .13.15 25.912 25.912 0 0 0 37.12 0l.08-.1a25.88 25.88 0 0 0 .34-35.67l-.13-.15c-.14-.15-.29-.29-.47-.47l-.09-.1-.85-.81-.18-.18a25.901 25.901 0 0 0 -34.49 0zm16.58 18.71h-11.2a33.629 33.629 0 0 1 1.86-11.68 45.043 45.043 0 0 0 9.34 1.44zm0 11.61a44.272 44.272 0 0 0 -9.06 1.3 39.807 39.807 0 0 1 -1.36-5.14 42.255 42.255 0 0 1 -.76-6.47h11.17zm0-23.21c-2.99-.124-5.96-.56-8.86-1.3a22.45 22.45 0 0 1 8.85-10.6zm-17.28-4.62c.15-.17.3-.32.46-.47l.1-.11.63-.6h.11l.14-.23a24.509 24.509 0 0 1 14-6.22 23.85 23.85 0 0 0 -8.31 10.62 34.378 34.378 0 0 1 -7.17-3zm-.89 1.05a36.46 36.46 0 0 0 7.57 3.14 35.001 35.001 0 0 0 -1.9 12h-11.44a24.494 24.494 0 0 1 5.77-15.14zm0 31.65a24.414 24.414 0 0 1 -5.77-15.17h11.47a43.004 43.004 0 0 0 2.17 11.94 35.853 35.853 0 0 0 -7.88 3.23zm1.21 1.36-.07-.09-.26-.27a34.656 34.656 0 0 1 7.42-3c1.76 4.78 4.22 8.55 6.89 10.56a24.413 24.413 0 0 1 -13.99-7.2zm8.35-3.71a42.409 42.409 0 0 1 8.63-1.24v12.26c-3.2-.89-6.46-5.16-8.64-11.02zm9.92-12.83h11.16a41.426 41.426 0 0 1 -2 11.33 37.982 37.982 0 0 0 -9.12-1zm0-11.51h.49a35.34 35.34 0 0 0 9-1.12 33.92 33.92 0 0 1 1.74 11.31h-11.24zm0 23.08c2.93-.017 5.851.319 8.7 1-2.17 6-5.46 10.37-8.69 11.3zm17.07 4.88-.08.11a24.443 24.443 0 0 1 -14 7.17c2.73-2 5.24-5.93 7-10.84a25.096 25.096 0 0 1 7.28 3.38zm1.05-1.16a26.322 26.322 0 0 0 -7.75-3.62 43.06 43.06 0 0 0 2.08-11.68h11.53a24.44 24.44 0 0 1 -5.86 15.3zm0-31.86a24.49 24.49 0 0 1 5.86 15.26h-11.5a35.126 35.126 0 0 0 -1.79-11.68 27.007 27.007 0 0 0 7.42-3.58zm-2.2-2.32.17.18c.21.2.43.41.67.66l.09.08c.13.13.26.26.38.4a24.985 24.985 0 0 1 -7 3.3 23.794 23.794 0 0 0 -8.44-10.9 24.481 24.481 0 0 1 14.12 6.28zm-7 5a35.701 35.701 0 0 1 -9 1v-11.91a22.548 22.548 0 0 1 9.04 10.89zm-104.06 118.57a10.436 10.436 0 0 0 -6.276-9.604 10.443 10.443 0 0 0 -14.315 7.135 10.44 10.44 0 0 0 9.511 12.859v3.48h-2.16v14.4h5.55v-14.4h-2.12v-3.48a10.438 10.438 0 0 0 9.81-10.39zm-9 15.17v11.8h-2.95v-11.8zm-1.48-6a9.126 9.126 0 0 1 -8.428-5.643 9.13 9.13 0 1 1 17.568-3.487 9.142 9.142 0 0 1 -9.1 9.09zm127.37-75.211a7.619 7.619 0 0 0 .49-7.82 6.532 6.532 0 0 0 -5.65-3.38 6.422 6.422 0 0 0 -5.17 2.76 6.407 6.407 0 0 0 -5.17-2.76 6.542 6.542 0 0 0 -5.65 3.38 7.598 7.598 0 0 0 .5 7.82c2 3.37 5.55 6.11 9.94 9.33l.38.28.39-.28c4.38-3.22 7.9-5.96 9.94-9.33zm-10.33 8c-4.08-3-7.35-5.6-9.21-8.67s-1.1-5.4-.48-6.51a5.308 5.308 0 0 1 4.52-2.72 5.396 5.396 0 0 1 4.61 3l.56.94.56-.94a5.433 5.433 0 0 1 4.61-3 5.3 5.3 0 0 1 4.52 2.72c.63 1.11 1.39 3.42-.47 6.51s-5.13 5.65-9.22 8.67zm-54.709-155.63-4 8-8.85 1.28 6.4 6.24-1.46 8.85 7.91-4.16 7.91 4.16-1.51-8.81 6.4-6.24-8.84-1.28zm5 15.08 1.18 6.88-6.18-3.25-6.18 3.25 1.18-6.88-5-4.88 6.91-1 3.09-6.27 3.09 6.27 6.91 1zm-51.09 96.88h-45.51v29.13h45.51zm-2.42 1.3-20.33 17.28-20.35-17.28zm-41.77.76 15.35 13-15.35 12zm1.19 25.77 15.13-11.86 5.08 4.32 5.08-4.32 15.13 11.86zm41.66-.69-15.36-12 15.36-13zm149.049-89.16v42l21.08 5.9v-5.74h4v-16.85h4.55l-3.62 3.36 1 1.06 5.36-5 .1-.09-5.37-5-.09-.09-1 1.06 3.62 3.37h-4.55v-24zm19.78 46.22-18.49-5.18v-39.53l18.48 5.17zm4-5.33h-2.66v-15.58h2.66zm0-16.88h-2.66v-18.31l-15.7-4.4h18.36z"/><path d="m283.861 111.293h-1.3v5.54h1.3zm-105.961-19.409v28.93h11.27v-2.69c4.206.503 8.435.777 12.67.82 5.9 0 9.75-.74 11.44-2.2a3.59 3.59 0 0 0 1.38-2.58 3.424 3.424 0 0 0 -.64-2 3.568 3.568 0 0 0 1.79-2.9 4.113 4.113 0 0 0 -1.43-3.71 4.336 4.336 0 0 0 1.7-3.29 3.745 3.745 0 0 0 -1.81-3.44 4.462 4.462 0 0 0 1.54-4 3.386 3.386 0 0 0 -2.87-3.15c-.36 0-1.26-.06-2.76-.06h-4.91c.6-2.27 1.93-8.43-.25-11.39-1.18-1.6-3.15-2-5.83-1.3l-.54.16.07.56c1.67 12.41-6.91 15.49-9.55 16.14v-3.89zm10 4.13v23.5h-8.67v-26.33h8.67zm12.21-16c1.84-.41 3.12-.1 3.9.95 1.87 2.54.5 8.87-.19 11.1l-.26.85h.89s3.26-.06 5.76-.06h2.6a2.122 2.122 0 0 1 1.74 2 3.07 3.07 0 0 1 -1.89 3.31l-1.73.66 1.76.56a2.698 2.698 0 0 1 2.13 2.71 2.895 2.895 0 0 1 -2.07 2.71l-2.83.64 2.83.63a2.51 2.51 0 0 1 1.79 2.93c-.1 1-.67 2-1.65 2h-1.57l1.11 1.11a2.667 2.667 0 0 1 1 1.91 2.486 2.486 0 0 1 -.92 1.64c-1 .85-3.65 1.88-10.6 1.88a115.912 115.912 0 0 1 -12.67-.83v-19.61c2.42-.59 12.31-3.79 10.84-17.07zm33.72 163.639h25.11l3.69-35.1h2.41v-8.54h-12.23v-5.68h-12.85v5.68h-12.24v8.59h2.42zm23.94-1.3h-22.77l-3.55-33.75h29.87zm-16.51-46.75h10.29v4.38h-10.29zm-12.23 11.62v-5.94h34.71v5.94z"/><path d="m247.03 213.583h-1.3v22.71h1.3zm7.84 0h-1.3v22.71h1.3zm-15.67 0h-1.3v22.71h1.3zm-145.08-15.14h-2.93v-7.56a7.421 7.421 0 0 0 -14.83 0v7.56h-2.93v18h20.69zm-16.46-7.56a6.121 6.121 0 0 1 12.23 0v7.56h-12.23zm15.16 24.29h-18.09v-15.43h18.09z"/><path d="m81.35 212.004h4.85l-.82-4.57a2.549 2.549 0 1 0 -3.21 0zm2.42-7.78a1.24 1.24 0 0 1 .59 2.34l-.42.22.7 3.92h-1.73l.7-3.92-.42-.22a1.241 1.241 0 0 1 .58-2.34zm92.32-186.62v19.28h9.67v-19.28zm8.37 18h-7.06v-16.7h7.06zm2.79-25.821v27.1h9.67v-27.1zm8.36 25.82h-7.06v-24.52h7.06zm12.46-31.57h-9.66v32.85h9.66zm-1.3 31.57h-7.06v-30.27h7.06zm1.3 2.55h-31.98v1.3h31.98zm-66.28 134.23h35.22v-35.16h6.25l-10.29-9.53v-11.2h-7.42v4.34l-15-13.88-32.6 30.27h6.24v35.16zm15.67-1.3h-13.8v-24.76h13.8zm9.42-53.29h4.79v8.69l-4.79-4.44zm-45.61 18.13 29.33-27.2 29.34 27.2h-4.23v35.16h-16.95v-26.06h-16.4v26.06h-16.87v-35.16zm46.42 69.57a10.359 10.359 0 0 0 -8.29-10.15 6.195 6.195 0 0 0 .31-1.91 6.118 6.118 0 0 0 -8.94-5.42 16.77 16.77 0 0 0 -33 3.88 12.005 12.005 0 0 0 -8.331 3.886 12.001 12.001 0 0 0 -3.144 8.639 12.005 12.005 0 0 0 1.115 4.552 12.002 12.002 0 0 0 11.41 6.923h38.46a10.381 10.381 0 0 0 10.41-10.4zm-59.54-1.65a10.648 10.648 0 0 1 10.32-10.69l.63-.14v-.63a15.473 15.473 0 0 1 13.862-15.408 15.468 15.468 0 0 1 16.748 12.208l.21 1 .82-.6a4.743 4.743 0 0 1 2.81-.98 4.81 4.81 0 0 1 4.81 4.81c.005.74-.166 1.47-.5 2.13l-.4.82.91.11a9.077 9.077 0 0 1 5.514 15.846 9.081 9.081 0 0 1 -6.564 2.284h-38.46a10.727 10.727 0 0 1 -7.588-3.157 10.715 10.715 0 0 1 -3.122-7.603zm142.15-83.01a15.689 15.689 0 0 0 -15.67 15.67c0 8.39 14.51 30.45 15.12 31.39l.55.82.54-.82c.62-.94 15.12-23 15.12-31.39a15.69 15.69 0 0 0 -15.66-15.67zm0 45.51c-2.68-4.17-14.37-22.72-14.37-29.84a14.383 14.383 0 0 1 4.071-10.405 14.37 14.37 0 0 1 24.659 10.405c0 7.1-11.68 25.67-14.36 29.84z"/><path d="m250.3 127.703a8.715 8.715 0 0 0 -8.055 5.372 8.713 8.713 0 0 0 1.886 9.497 8.712 8.712 0 0 0 13.405-1.326 8.713 8.713 0 0 0 -7.236-13.543zm0 16.11a7.406 7.406 0 0 1 -6.853-4.567 7.411 7.411 0 0 1 13.004-6.961 7.416 7.416 0 0 1 1.249 4.118 7.419 7.419 0 0 1 -7.4 7.41zm-14.04 110.911a17.707 17.707 0 0 0 -21.165-17.37 17.71 17.71 0 0 0 3.455 35.08 17.74 17.74 0 0 0 17.71-17.71zm-34.12 0a16.41 16.41 0 1 1 16.41 16.41 16.43 16.43 0 0 1 -16.41-16.41z"/><path d="m226.621 263.713.92-.92-8.07-8.07 8.07-8.07-.92-.92-8.07 8.07-8.07-8.07-.92.92 8.07 8.07-8.07 8.07.92.92 8.07-8.07zm-198.131-186.649a17.71 17.71 0 1 0 17.71 17.71 17.74 17.74 0 0 0 -17.71-17.71zm0 34.119a16.41 16.41 0 1 1 16.41-16.41 16.429 16.429 0 0 1 -16.41 16.41z"/><path d="m30.84 90.263 4.44 3.86h-15.32v1.3h15.32l-4.44 3.86.86.98 6.31-5.49-6.31-5.49zm17.35-46.419a17.71 17.71 0 1 0 17.71 17.76 17.729 17.729 0 0 0 -17.71-17.76zm0 34.12a16.411 16.411 0 0 1 -11.585-28.032 16.41 16.41 0 0 1 27.995 11.672 16.43 16.43 0 0 1 -16.41 16.36z"/><path d="m45.83 57.044-.85-.98-6.31 5.49 6.31 5.49.85-.97-4.43-3.87h15.32v-1.3h-15.32zm-3.14 179.169a17.71 17.71 0 1 0 -17.71-17.71 17.73 17.73 0 0 0 17.71 17.71zm0-34.12a16.41 16.41 0 1 1 -16.41 16.41 16.431 16.431 0 0 1 16.41-16.41z"/><path d="m42.85 214.924h-.32a.61.61 0 0 0 -.61.61v11.14c0 .337.273.61.61.61h.32a.61.61 0 0 0 .61-.61v-11.14a.61.61 0 0 0 -.61-.61zm-.17-3.2a.94.94 0 0 0 1.05-1 1.002 1.002 0 0 0 -1.05-1 .998.998 0 0 0 -1 1 .922.922 0 0 0 1 1zm104.32 59.779a17.708 17.708 0 0 0 -10.933-16.362 17.715 17.715 0 0 0 -19.3 3.839 17.716 17.716 0 0 0 -3.839 19.3 17.717 17.717 0 0 0 16.362 10.933 17.736 17.736 0 0 0 17.71-17.71zm-34.12 0a16.412 16.412 0 0 1 28.014-11.604 16.408 16.408 0 0 1 -2.487 25.248 16.404 16.404 0 0 1 -9.117 2.766 16.433 16.433 0 0 1 -16.41-16.41z"/><path d="m130.11 279.323a1 1 0 1 0 -1.998 0 1 1 0 0 0 1.998 0zm2.59-12.59c0 1.33-.91 2.06-1.87 2.83l-.51.42a5.251 5.251 0 0 0 -1.93 4.38v1.64a.558.558 0 0 0 .163.435.552.552 0 0 0 .437.155h.16a.54.54 0 0 0 .438-.155.547.547 0 0 0 .162-.435v-1.68a3.849 3.849 0 0 1 1.78-3.64c1.12-.9 2.67-2.13 2.67-3.95 0-3-2.25-4-4.36-4a4.533 4.533 0 0 0 -3.59 1.51.565.565 0 0 0 -.219.634.56.56 0 0 0 .119.206l.11.14a.583.583 0 0 0 .658.224.568.568 0 0 0 .212-.124 3.677 3.677 0 0 1 2.67-1.21 2.534 2.534 0 0 1 2.709 1.53c.143.345.209.717.191 1.09zm161.67-83.69a17.707 17.707 0 0 0 -21.165-17.37 17.716 17.716 0 0 0 -13.915 13.915 17.715 17.715 0 0 0 7.531 18.18 17.708 17.708 0 0 0 9.839 2.985 17.728 17.728 0 0 0 17.71-17.71zm-17.71 16.41a16.406 16.406 0 0 1 -15.161-10.13 16.408 16.408 0 0 1 21.441-21.441 16.41 16.41 0 0 1 10.13 15.161 16.43 16.43 0 0 1 -16.41 16.41z"/><path d="m276.5 188.704-7.97-6.07-.79 1.03 9.09 6.93 8.91-13.8-1.09-.7zm-101.66-119.89h-22.17v35.999l11.09-7.51 11.08 7.51v-36zm-1.29 33.549-9.78-6.64-9.79 6.64v-32.25h19.57zm64.37 13.781h25.88v-30.64h-43.66v30.64h8.35v9zm-16.48-1.3v-28h41.11v28h-25.1l-7.61 7.26v-7.26zm-49.44-91.481v-32.84h-11.16v32.84l5.58 12.75zm-9.86-31.54h8.56v4.51h-8.56zm0 5.81h8.56v24.97h-8.56zm.35 26.24h7.87l-3 6.88h-1.86zm4.29 8.18-.36.82-.36-.82zm62.77-17.22a17.713 17.713 0 0 0 -16.362 10.933 17.708 17.708 0 0 0 3.839 19.3 17.712 17.712 0 0 0 27.249-2.684 17.71 17.71 0 0 0 2.984-9.839 17.716 17.716 0 0 0 -17.71-17.71zm0 34.12a16.399 16.399 0 0 1 -16.48-16.075 16.402 16.402 0 0 1 15.83-16.715v16.65l11.75 11.79a16.329 16.329 0 0 1 -11.1 4.35zm12-5.3-8.59-8.58 10.78 5.62a16.741 16.741 0 0 1 -2.19 2.96zm4.37-11.11c0 2.423-.544 4.815-1.59 7l-12.93-6.74 14.27-3.2c.179.97.27 1.954.27 2.94zm-15.76-.81v-15.57a16.401 16.401 0 0 1 15.2 12.21zm24.38 139.731h-18.21v1.3h18.21zm0 7.569h-18.21v1.3h18.21zm0 7.571h-18.21v1.3h18.21zm-64.989-13.64-.18 1.29a17.5 17.5 0 1 1 -4.83 0l-.18-1.29a18.807 18.807 0 0 0 -16.17 19.931 18.808 18.808 0 0 0 18.765 17.509 18.809 18.809 0 0 0 2.595-37.44z"/><path d="m187.65 171.634h-1.3v19.95h1.3zm8.76-174.511 1-10-10 1.05-12.48 12.53 8.94 8.95zm-8.36-7.7 7.95-.84-.84 7.94-11.29 11.29-7.1-7.11zm-137.96 130.901h-26.64l-5.1-5.72h-17v36h48.77zm-1.31 29h-46.16v-33.43h15.15l5.09 5.71h25.92zm65.98-51.581a11.262 11.262 0 0 0 19.219 7.976 11.266 11.266 0 0 0 2.445-12.272 11.26 11.26 0 0 0 -10.404-6.954 11.267 11.267 0 0 0 -11.26 11.25zm11.26-10a10.002 10.002 0 0 1 9.808 11.951 9.995 9.995 0 0 1 -7.857 7.857 10 10 0 0 1 -11.951-9.808 10 10 0 0 1 10-9.95z"/><path d="m113.82 81.083-4.46 4.46 2.45 4.87-1 2.47-5.2 1.72v6.31l5.17 1.71 1 2.47-2.45 4.87 4.46 4.46 4.86-2.45 2.48 1 1.71 5.17h6.31l1.7-5.17 2.48-1 4.86 2.45 4.47-4.47-2.45-4.86 1-2.47 5.17-1.71v-6.31l-5.17-1.71-1-2.47 2.45-4.87-4.47-4.46-4.86 2.45-2.47-1-1.71-5.17h-6.31l-1.71 5.17-2.48 1zm8.39 2.4 1.6-4.85h4.43l1.6 4.85 3.57 1.48 4.56-2.3 3.13 3.14-2.29 4.55 1.48 3.58 4.84 1.6v4.43l-4.84 1.6-1.48 3.58 2.29 4.55-3.13 3.14-4.56-2.3-3.57 1.48-1.6 4.85h-4.43l-1.6-4.85-3.58-1.48-4.55 2.3-3.14-3.14 2.3-4.55-1.49-3.54-4.84-1.6v-4.43l4.84-1.6 1.49-3.58-2.3-4.55 3.14-3.14 4.55 2.3zm-34.27 191.341a6.183 6.183 0 0 0 6.226-6.216 6.175 6.175 0 0 0 -3.168-5.361 6.179 6.179 0 0 0 -8.448 2.457l-9.77-4c.166-.565.25-1.151.25-1.74a6.099 6.099 0 0 0 -1.16-3.58l7-6.24a6.173 6.173 0 0 0 8.489-.044 6.173 6.173 0 0 0 .41-8.479 6.169 6.169 0 0 0 -9.76 7.523l-7.049 6.24a6.177 6.177 0 0 0 -7.128-.867 6.181 6.181 0 0 0 1.954 11.525 6.179 6.179 0 0 0 6.444-3.168l9.77 4a6.17 6.17 0 0 0 5.94 7.91zm0-11.06a4.881 4.881 0 0 1 3.423 8.348 4.879 4.879 0 1 1 -3.423-8.348zm-4.9-23.06a4.886 4.886 0 0 1 4.526 3.014 4.89 4.89 0 1 1 -4.526-3.014zm-16.25 24.15a4.893 4.893 0 0 1 -4.796-5.844 4.89 4.89 0 1 1 4.796 5.844zm47.67-28.47c-3-3-2.78-6.78-2.51-10.76.312-2.484.2-5.003-.33-7.45-1.66-5.93-7.88-6-8.15-6s-6.49.07-8.15 6a22.17 22.17 0 0 0 -.33 7.45c.27 4 .52 7.73-2.51 10.76l-1.11 1.11h8.47a3.688 3.688 0 0 0 3.63 3.027 3.689 3.689 0 0 0 3.63-3.027h8.45zm-11 2.86a2.389 2.389 0 0 1 -2.29-1.75h4.58a2.395 2.395 0 0 1 -2.28 1.75zm-9.1-3.05c2.42-3.22 2.16-7 1.92-10.66a20.611 20.611 0 0 1 .29-7c1.39-5 6.67-5 6.89-5s5.5.06 6.9 5c.486 2.301.584 4.667.29 7-.25 3.66-.5 7.44 1.92 10.66zm2.19-156.461 4.421 11.87 14.58-30.83-30.78 14.55 11.78 4.41zm4.551 8.48-3.29-8.82 14.15-14.15zm-4.21-9.74-8.82-3.29 23-10.86zm13.639-53.19h-1.3v2.99h1.3z"/><path d="m73.07 9.844v11.3h-11.63v26.55h11.63v8.14h31.37v-8.14h11.63v-26.55h-11.63v-11.3zm1.3 1.3h28.77v10h-28.77zm28.77 43.39h-28.77v-17.93h28.77zm11.63-32.09v24h-10.33v-11.18h-31.37v11.13h-10.32v-24z"/><path d="m99.72 41.243h-21.93v1.3h21.93zm-6.38 6.981h-15.55v1.3h15.55zm62.78-46.62-9.7-9.71h-26.18v50h35.88zm-9.32-7.49 7.1 7.11h-7.1zm8 46.49h-33.25v-47.43h24v9.33h9.32z"/><path d="m150.79 21.323h-25.22v1.3h25.22zm0-8.779h-25.22v1.3h25.22zm-14.24-8.771h-10.98v1.3h10.98zm6.91 26.321h-17.89v1.3h17.89zm-131.79 149.699h8.88l-5.19-7.78v-11.65l3-3.95h-14.67l3 3.95v11.65l-5.19 7.78h8.91v14.5h1.3zm-7.78-1.3 4.06-6.09v-12.47l-1.66-2.22h9.46l-1.66 2.22v12.47l4.06 6.09zm58.58 55.621c-.39 1.82.27 3.6 2 5.29a6.277 6.277 0 0 0 4.42 1.93 5.437 5.437 0 0 0 3.89-1.63l9.51-9.51c2.28-2.28 2.15-5.85-.3-8.31s-6-2.59-8.31-.31l-9.52 9.52-.11.12.94.89 9.61-9.61c1.78-1.78 4.5-1.65 6.47.31s2.09 4.68.3 6.47l-9.51 9.52c-1.79 1.78-4.51 1.65-6.47-.31-1.36-1.36-1.9-2.74-1.61-4.1z"/><path d="m68.26 242.603-.94-.89-9.61 9.6c-1.78 1.79-4.5 1.66-6.47-.3s-2.09-4.69-.3-6.48l9.51-9.51a4.107 4.107 0 0 1 3.2-1.25 5.109 5.109 0 0 1 3.27 1.56c1.36 1.35 1.9 2.73 1.6 4.09l1.27.28c.39-1.8-.28-3.63-1.95-5.29a6.372 6.372 0 0 0 -4.12-1.94 5.437 5.437 0 0 0 -4.19 1.63l-9.51 9.5c-2.28 2.28-2.15 5.85.3 8.31a6.318 6.318 0 0 0 4.43 1.93 5.43 5.43 0 0 0 3.88-1.63l9.51-9.51zm199.82-84.279a21.808 21.808 0 0 0 12.63 4.53c.36 0 .71 0 1-.06 9.79-.59 16.19-9.11 16.46-9.48l.31-.42-.34-.39c-.32-.37-7.69-8.74-16.36-9.43a10.204 10.204 0 0 0 -1.12-.07h-1c-8.73.55-15.21 7.8-16.4 9.24h-.36v.65c.03.87 2.58 3.53 5.18 5.43zm28.77-5.37a26.426 26.426 0 0 1 -9.24 7.09 9.867 9.867 0 0 0 .43-13.79 34.35 34.35 0 0 1 8.81 6.7zm-17-8.6c.3 0 .59-.05.89-.05s.62 0 .93.05a8.637 8.637 0 0 1 7.718 9.047 8.635 8.635 0 0 1 -8.628 8.185 8.641 8.641 0 0 1 -.91-17.232zm-6.12 1.56a9.897 9.897 0 0 0 -2.076 10.985 9.887 9.887 0 0 0 2.266 3.215 25.552 25.552 0 0 1 -9.53-7.08 29.017 29.017 0 0 1 9.31-7.12z"/><path d="m280.71 157.094a4.173 4.173 0 0 0 4.09-4.984 4.17 4.17 0 0 0 -8.26.814 4.185 4.185 0 0 0 1.224 2.946 4.185 4.185 0 0 0 2.946 1.224zm0-7a2.866 2.866 0 0 1 2.652 1.772 2.868 2.868 0 0 1 -2.092 3.913 2.86 2.86 0 0 1 -1.658-.164 2.863 2.863 0 0 1 -1.288-1.057 2.863 2.863 0 0 1 -.484-1.594 2.88 2.88 0 0 1 2.87-2.91zm-163.59-5.12c-5.23-17-15.26-21.63-21.32-22.84a14.12 14.12 0 1 0 -10 0c-.52.11-1 .22-1.57.37-6.41 1.77-15 7.1-19.76 22.47l-.26.84h53.19zm-39.15-36a12.821 12.821 0 1 1 13.68 12.77h-1.74a12.821 12.821 0 0 1 -11.94-12.79zm-12 35.56c4.58-14.18 12.58-19.13 18.58-20.78a20.305 20.305 0 0 1 2.5-.53 17.945 17.945 0 0 1 2.65-.2h1.16c.34 0 .67 0 1-.05.969.007 1.935.091 2.89.25 5.53.88 15.52 4.83 20.86 21.25zm158.47 70.17c.082-.123.143-.258.18-.4.582-1.422.881-2.944.88-4.48a10.919 10.919 0 0 0 -21.096-4.28 10.919 10.919 0 0 0 -.734 4.28 11.808 11.808 0 0 0 .88 4.48c.035.135.092.263.17.38.387.858.884 1.661 1.48 2.39 4.47 7.55 4.06 10.63 4.06 10.65v6.08h8.61v-6.07s-.41-3.11 4-10.57a11.61 11.61 0 0 0 1.57-2.46zm-6.89 17.9h-6v-2.56h6zm0-4.62v.76h-2.36v-16.14l2.77-1.52-.63-1.14-2.78 1.55-2.78-1.53-.63 1.14 2.76 1.52v16.07h-2.35v-.76c.06-.55.22-3.95-4.29-11.55a10.524 10.524 0 0 1 -1.38-2.23l-.14-.31a10.404 10.404 0 0 1 -.8-4 9.62 9.62 0 0 1 5.806-9.382 9.632 9.632 0 0 1 10.806 2.228 9.62 9.62 0 0 1 2.618 7.154c0 1.373-.272 2.732-.8 4l-.14.31a10.91 10.91 0 0 1 -1.44 2.31c-4.43 7.52-4.24 10.92-4.24 11.47zm-143.56-140.65a7.74 7.74 0 0 0 7.74-7.73v-11.15a7.743 7.743 0 0 0 -7.735-8.018 7.74 7.74 0 0 0 -7.735 8.018v11.15a7.74 7.74 0 0 0 7.73 7.73zm-6.44-18.88a6.43 6.43 0 1 1 12.86 0v11.15a6.43 6.43 0 0 1 -12.86 0z"/><path d="m63.86 77.424v2.44a10.14 10.14 0 0 0 9.48 10.1v8.41h-3.25v1.3h7.8v-1.3h-3.25v-8.41a10.14 10.14 0 0 0 9.48-10.1v-2.44h-1.3v2.44a8.83 8.83 0 1 1 -17.65 0v-2.44zm108.04 178.269a11.272 11.272 0 0 0 -11.042 13.475 11.265 11.265 0 0 0 8.857 8.85 11.272 11.272 0 0 0 13.465-11.055 11.28 11.28 0 0 0 -11.28-11.27zm0 21.24a10 10 0 1 1 -.002-20 10 10 0 0 1 .002 20z"/><path d="m197.35 254.223h-11.06l-7.74-7.78h-13.36l-6.2 7.78h-9.53v29.11h47.89zm-1.3 27.81h-45.29v-26.51h8.86l6.2-7.78h12.21l7.72 7.78h10.3z"/><path d="m191.42 258.623h-1.3v2.93h1.3zm-73.139-14.469h11l17.75 9.88v-35.43l-17.76 10.63h-11zm11.85-13.89 15.63-9.35v30.91l-15.63-8.7zm-10.58.34h9.25v12.3h-9.25zm32.109 13.299a11.22 11.22 0 0 0 0-14.41l-1 .84a9.888 9.888 0 0 1 0 12.73z"/><path d="m159.69 236.704a16.513 16.513 0 0 0 -4.89-11.78l-.92.92a15.324 15.324 0 0 1 0 21.68l.92.92a16.492 16.492 0 0 0 4.89-11.74zm63.86-155.571h50.78v-7.69h3.89v-11.67h-3.89v-7.7h-50.78zm50.78-18.06h2.59v9.07h-2.59zm-49.48-7.7h48.18v24.46h-48.14z"/><path d="m232.07 59.474h-1.299v16.26h1.299zm8.65 0h-1.3v16.26h1.3zm8.65 0h-1.3v16.26h1.3zm8.65 0h-1.3v16.26h1.3zm8.65 0h-1.3v16.26h1.3zm-64.93 154.849h-35.19v28.38h35.22zm-1.3 27.08h-32.62v-5.93c6.81-1.65 10.18-.74 13.74.22a30.952 30.952 0 0 0 6.58 1.24h.66a21.391 21.391 0 0 0 5.47-1 33.293 33.293 0 0 1 6.17-1.18zm-20-14.13.66-1 .69.51.72-.69 1.15 2.42-2.66 5.66a26.382 26.382 0 0 0 -4.57-.87l3.12-6.6zm-.24-2 1-2.06.76 1.63-.24.23-.89-.67zm7.8 0 1.07-1.23 1.16 1.26 1.32-1.2 5.08 9.95c-1 .21-1.88.45-2.74.68-1.842.609-3.77.917-5.71.91a29.837 29.837 0 0 1 -5.94-1.1l4.58-9.74zm-.6-1.72 1.89-4 1.68 3.29-.67.62-1.26-1.36-1.38 1.58zm13 9.87c-.86.07-1.67.17-2.44.3l-8.75-17.14-4.87 10.36-3.2-6.81-6.14 13a28.87 28.87 0 0 0 -7.22.89v-18.42h32.62z"/><path d="m174.39 223.774a3.396 3.396 0 0 0 1.892-.569 3.394 3.394 0 0 0 1.454-3.489 3.401 3.401 0 0 0 -6.736.658c0 .9.357 1.763.993 2.4a3.397 3.397 0 0 0 2.397 1zm0-5.5a2.098 2.098 0 0 1 1.499 3.581 2.097 2.097 0 0 1 -3.234-.314 2.1 2.1 0 0 1 1.735-3.267zm-100.49-105.52h-7.14v-23.15h-14.6v23.15h-7.14l14.44 14.44zm-20.44 1.3v-23.15h12v23.15h5.3l-11.3 11.3-11.3-11.3zm76.37-41.45.92.92a4.325 4.325 0 0 1 3.11-1.29 4.372 4.372 0 0 1 3.11 1.28l.91-.92a5.7 5.7 0 0 0 -8.05 0zm13.41-5.341a13.267 13.267 0 0 0 -18.77 0l.92.92a12.001 12.001 0 0 1 16.93 0z"/><path d="m148.6 61.903a20.87 20.87 0 0 0 -29.49 0l.92.92a19.57 19.57 0 0 1 27.65 0z"/><path d="m113.76 56.604.92.92a27.102 27.102 0 0 1 38.35 0l.92-.92a28.392 28.392 0 0 0 -20.095-8.331 28.406 28.406 0 0 0 -20.095 8.33zm71.79 12.91-2.71 2.71 1 3.71 3.71 1 2.71-2.72-1-3.71zm1.6 6-2.26-.61-.6-2.26 1.65-1.65 2.26.61.6 2.25z"/><path d="m205.82 43.544-5.46 5.46 1.46 5.47-4.09 4.13-8.18-8.2v-2.13l-5-4.93-4.16 4.16 4.92 4.92 2.14.06 8.2 8.12-7.54 7.54-3.17-.85-4.31 4.31 1.57 5.89 5.89 1.58 4.31-4.31-.85-3.16 7.54-7.54 1.46 1.45-2 2 2.87.87 10.87 10.87 4.16-4.16-10.9-10.82-.88-2.87-2 2-1.43-1.44 4.09-4.09 5.47 1.47 5.46-5.47-1.19-4.27-5.52 5.46-3.86-1-1-3.86 5.5-5.49zm-15.72 27.69.86 3.18-3.25 3.25-4.45-1.19-1.18-4.44 3.25-3.25 3.22.82 8-8 1.6 1.6zm14.85-5.69 9.6 9.6-2.32 2.32-9.6-9.6zm-2.35-.26 1.43-1.43.18.58-2.66 2.69-.58-.18 1-1zm-.92-.92-.23.24-13.4-13.4-2.14-.06-3.64-3.64 2.28-2.32 3.64 3.64.06 2.14zm3-9.28 5.31 1.43 4.42-4.42.37 1.43-4.41 4.41-5.47-1.47-4.62 4.62-1.6-1.6 4.62-4.62-1.46-5.47 4.4-4.41 1.43.38-4.41 4.41zm-133.95 101.819h-14v-4h-1.3v4h-18.41v-4h-1.3v4h-14v41.7h49zm-1.3 40.39h-46.35v-26h46.35zm0-27.31h-46.35v-11.78h12.64v4h1.3v-4h18.46v4h1.3v-4h12.65z"/><path d="m32.08 177.243h-6v1.3h6zm11.45 0h-6v1.3h6zm-11.45 6.851h-6v1.3h6zm11.45 0h-6v1.3h6zm-11.45 6.859h-6v1.3h6zm11.45 0h-6v1.3h6zm11.45-13.71h-6v1.3h6zm0 6.851h-6v1.3h6zm0 6.859h-6v1.3h6zm11.45-13.71h-6v1.3h6zm0 6.851h-6v1.3h6zm-45.51-140.17-3 6.13-6.77 1 4.9 4.78-1.19 6.77 6.06-3.18 6 3.18-1.16-6.74 4.91-4.78-6.78-1zm3.5 11.43.83 4.83-4.33-2.28-4.37 2.28.82-4.83-3.5-3.41 4.84-.7 2.17-4.39 2.16 4.39 4.84.7zm286.51 152.319h-16.56v-7.6c0-1.633.649-3.2 1.805-4.355a6.157 6.157 0 0 1 8.711 0 6.16 6.16 0 0 1 1.804 4.355v3.38h1.3v-3.38a7.46 7.46 0 0 0 -14.92 0v7.6h-2.94v18.13h20.8zm-1.3 16.83h-18.2v-15.53h18.2z"/><path d="m298.1 221.304h4.86l-.82-4.59a2.568 2.568 0 0 0 -.124-4.101 2.575 2.575 0 0 0 -2.971 0 2.575 2.575 0 0 0 -.986 2.802c.146.512.447.966.861 1.299zm2.43-7.83a1.246 1.246 0 0 1 1.229.947 1.249 1.249 0 0 1 -.639 1.413l-.42.22.71 4h-1.76l.71-4-.42-.22a1.255 1.255 0 0 1 -.638-1.413 1.255 1.255 0 0 1 1.228-.947zm8.02-139.481 1.28-.23a16.095 16.095 0 0 0 -13.24-12.94l-.2 1.28a14.79 14.79 0 0 1 12.16 11.89z"/><path d="m315.55 72.724a21.85 21.85 0 0 0 -17.89-17.58l-.21 1.29a20.55 20.55 0 0 1 16.83 16.52zm-14 3.089-1.6 3.43c-4.31-1.46-8.8-7.46-9.69-9.55l3.51-1.64-4.45-9.56-.59.27-1.32.6c-1 .45-2.21 1-2.56 1.17a5.242 5.242 0 0 0 -2.84 6.26 29.842 29.842 0 0 0 6.15 11.09 30.375 30.375 0 0 0 5.77 5.27 28.733 28.733 0 0 0 8.83 4.44c.481.138.979.21 1.48.21a5.533 5.533 0 0 0 1.69-.27c2.29-.73 3.18-2.6 3.95-4.59l1.12-2.73zm7.12 6.65c-.7 1.83-1.38 3.27-3.14 3.83a4.08 4.08 0 0 1 -2.42 0 27.31 27.31 0 0 1 -8.43-4.25 28.72 28.72 0 0 1 -5.52-5 28.25 28.25 0 0 1 -5.9-10.6 4.003 4.003 0 0 1 2.16-4.74c.35-.17 1.55-.71 2.52-1.15l.75-.34 3.35 7.21-3.3 1.54.08.49c.36 2.07 6 9.87 11.32 11.2l.52.13 1.52-3.24 7.15 3.33zm7.82 155.601v-8.64h-18.57v8.64h-17.94v37.14h54.45v-37.14zm-17.26-7.34h16v7.34h-16zm33.9 43.18h-51.85v-21.72l20.15 5.24v2.08l5.78 2.52 5.77-2.52v-2.08l20.15-5.24zm-30.4-15.25v-3.24h8.95v3.24l-4.47 1.95zm30.4-7.81-20.15 5.24v-2h-11.55v2l-20.15-5.24v-11.48h51.85zm-26.94-203.73h5.46v-35.11h-40.1v8.6h-14.16l-7.84 11.71v14.8h8.41a5.71 5.71 0 0 0 11.34 0h25.54a5.713 5.713 0 0 0 5.675 5.079 5.71 5.71 0 0 0 5.675-5.08zm-50.85-21.11h4.72v5.86h-8.64zm8.29 24.87a4.418 4.418 0 0 1 -4.345-5.28 4.416 4.416 0 0 1 3.475-3.476 4.419 4.419 0 1 1 .87 8.756zm7.92-5.06h-2.25a5.709 5.709 0 0 0 -11.34 0h-7.11v-12.65h10.51v-8.46h-5.15l1.88-2.8h13.46zm38.8 0h-.86v-5.78h.86zm-37.49 0v-32.51h37.49v25.43h-2.17v7.08h-2a5.709 5.709 0 0 0 -9.483-3.624 5.713 5.713 0 0 0 -1.867 3.624zm23.24.65a4.421 4.421 0 1 1 8.842-.02 4.421 4.421 0 0 1 -8.842.02zm-205.1 233.189h-4v1.3h3.06l2.86 7.56 4.24 11.22 1.06 2.83a2.557 2.557 0 0 0 -1.09 2.1 2.58 2.58 0 0 0 5.08.65h4.82a2.598 2.598 0 0 0 4.374 1.406 2.596 2.596 0 0 0 .263-3.426 2.596 2.596 0 0 0 -3.366-.695 2.609 2.609 0 0 0 -1.171 1.415h-4.88a2.567 2.567 0 0 0 -2.49-1.93h-.28l-.89-2.37h13.66l4.23-11.22h-22.13zm18.61 23.95a1.29 1.29 0 1 1 0 2.58 1.29 1.29 0 0 1 0-2.58zm-9.85-.17a1.289 1.289 0 0 1 0 2.57 1.276 1.276 0 0 1 -.984-.333 1.29 1.29 0 0 1 .984-2.237zm14.84-13.57-3.25 8.62h-13.25l-3.26-8.62zm-29.82-4.11a14.158 14.158 0 0 0 -14.154-13.783 14.158 14.158 0 0 0 -14.156 13.783v5.91a8.004 8.004 0 0 0 -1.84 8.751 7.999 7.999 0 0 0 7.42 4.989h.65v-16h-.65a8.01 8.01 0 0 0 -4.28 1.25v-4.89a12.858 12.858 0 0 1 12.855-12.501 12.858 12.858 0 0 1 12.856 12.501v4.84a8.01 8.01 0 0 0 -4.28-1.25h-.65v16h.65a7.995 7.995 0 0 0 7.42-4.989 8 8 0 0 0 -1.84-8.751v-5.86zm-23.38 5v13.35a6.707 6.707 0 0 1 -6.025-6.675 6.71 6.71 0 0 1 6.026-6.675zm24.51 6.67a6.72 6.72 0 0 1 -6.06 6.68v-13.38a6.713 6.713 0 0 1 6.06 6.67zm-61.65-7.639c0-7-7.32-12.65-16.32-12.65s-16.31 5.68-16.31 12.65c0 3.93 2.26 7.53 6.23 9.94v7.37l5.23-5.24c1.588.385 3.216.579 4.85.58 9 0 16.32-5.68 16.32-12.65zm-16.32 11.35a19.532 19.532 0 0 1 -4.89-.62l-.36-.1-3.53 3.54v-5l-.33-.19c-3.75-2.17-5.9-5.45-5.9-9 0-6.26 6.74-11.35 15-11.35s15 5.09 15 11.35-6.71 11.37-14.99 11.37z"/><path d="m.61 286.604a3.161 3.161 0 0 0 -3.1 3.776 3.16 3.16 0 0 0 6.26-.616 3.17 3.17 0 0 0 -3.16-3.16zm0 5a1.864 1.864 0 0 1 -1.824-2.223 1.86 1.86 0 1 1 3.545 1.076 1.854 1.854 0 0 1 -1.72 1.147zm7.33-5a3.161 3.161 0 0 0 -3.099 3.776 3.16 3.16 0 0 0 6.26-.616 3.17 3.17 0 0 0 -3.16-3.16zm0 5a1.864 1.864 0 0 1 -1.824-2.223 1.86 1.86 0 1 1 1.824 2.223zm7.33-5a3.162 3.162 0 0 0 -3.099 3.776 3.16 3.16 0 0 0 6.26-.616 3.17 3.17 0 0 0 -3.16-3.16zm0 5a1.864 1.864 0 0 1 -1.824-2.223 1.861 1.861 0 1 1 1.824 2.223zm257.85 8.879a4.739 4.739 0 0 0 -2.81-.87c-2.27 0-4.11 1.42-4.11 3.18s1.84 3.17 4.11 3.17 4.11-1.42 4.11-3.17v-14.87l12.71-1.59v12.41a4.741 4.741 0 0 0 -2.81-.87c-2.27 0-4.11 1.42-4.11 3.17s1.84 3.18 4.11 3.18 4.11-1.43 4.11-3.18v-19.92l-15.31 1.91zm-2.81 4.18c-1.52 0-2.81-.86-2.81-1.87s1.29-1.88 2.81-1.88 2.81.86 2.81 1.88-1.28 1.87-2.81 1.87zm14-1.74c-1.52 0-2.81-.86-2.81-1.88s1.29-1.87 2.81-1.87 2.81.85 2.81 1.87-1.27 1.88-2.8 1.88zm-9.9-18.75 12.72-1.57v2.43l-12.71 1.57zm-225.98 19.87a4.994 4.994 0 0 0 .7-4.35c-.93-2.34-2.61-3.62-4.72-3.62-3.26 0-7 3.15-8.52 7.56-1.49-4.34-5.27-7.56-8.49-7.56-2.11 0-3.79 1.28-4.72 3.62a5 5 0 0 0 .7 4.34 7.88 7.88 0 0 0 3.81 2.77h-10.64v11.34h3.3v23h32.19v-23h3.3v-11.34h-10.72a7.999 7.999 0 0 0 3.81-2.76zm-24-.74a3.707 3.707 0 0 1 -.57-3.13c.73-1.83 1.94-2.8 3.51-2.8 3.39 0 7.51 4.28 7.83 9.43-6.97-.11-9.65-1.95-10.74-3.5zm6.49 36.59h-9.8v-21.75h9.83zm0-23.05h-13.11v-8.74h13.14zm8.63 23.05h-7.3v-31.79h7.3zm-3-33.09c.32-5.15 4.44-9.43 7.83-9.43 1.57 0 2.78 1 3.51 2.8a3.78 3.78 0 0 1 -.57 3.14c-1.02 1.54-3.77 3.38-10.77 3.49zm14.11 33.09h-9.8v-21.75h9.83zm3.31-31.79v8.74h-13.11v-8.74zm161.32-17.279.07 1.3a173.931 173.931 0 0 1 18.41 0l.07-1.29a173.65 173.65 0 0 0 -18.55-.01zm.14-3.69a57.716 57.716 0 0 1 18.27 0l.21-1.28a59.116 59.116 0 0 0 -18.68 0zm-.13 8.909.06 1.29c6.133-.32 12.278-.32 18.41 0l.07-1.29c-6.175-.33-12.364-.33-18.54 0zm25.16-5.2.07 1.29a173.742 173.742 0 0 1 18.4 0l.08-1.3a174.176 174.176 0 0 0 -18.55.01zm-.07-4.96.21 1.28a57.716 57.716 0 0 1 18.27 0l.2-1.28a59.116 59.116 0 0 0 -18.68 0zm.07 10.17.07 1.29c6.133-.32 12.278-.32 18.41 0l.06-1.29c-6.175-.33-12.364-.33-18.54 0z"/><path d="m237.15 277.224a31.497 31.497 0 0 0 -25.63.11l-.39.17v36.24l.92-.42a30.296 30.296 0 0 1 24.83 0l.92.42v-.58a30.202 30.202 0 0 1 24.45.16l.92.42v-36.24l-.39-.17a31.51 31.51 0 0 0 -25.63-.11zm-.6 34.52a31.613 31.613 0 0 0 -24.07 0v-33.39a30.221 30.221 0 0 1 24.07 0zm25.37 0a31.558 31.558 0 0 0 -24.07 0v-33.38a30.155 30.155 0 0 1 24.07 0zm-101.08 11.619 5.58 12.75 5.58-12.75v-32.84h-11.16zm5.58 9.51-.36-.82h.72zm.93-2.12h-1.86l-3-6.88h7.87zm-5.21-38.93h8.56v4.51h-8.56zm0 5.81h8.56v24.97h-8.56zm12.79 3.07 8.94 8.95 12.54-12.53 1-10-10 1.05zm21.07-12.1-.84 7.94-11.29 11.29-7.1-7.11 11.28-11.28z"/><path d="m192.55 294.013a1.893 1.893 0 0 0 1.37-.57 1.94 1.94 0 0 0 0-2.73 1.998 1.998 0 0 0 -2.73 0 1.936 1.936 0 0 0 -.569 1.365 1.92 1.92 0 0 0 .569 1.365 1.902 1.902 0 0 0 1.36.57zm-.44-2.38a.612.612 0 0 1 .44-.19c.17.001.331.07.45.19a.63.63 0 0 1 .189.445.63.63 0 0 1 -.189.445.637.637 0 0 1 -.89 0 .627.627 0 0 1 -.19-.704.629.629 0 0 1 .14-.216zm-71.87.24v50h35.88v-40.27l-9.7-9.71zm34.58 48.73h-33.27v-47.43h24v9.33h9.32zm-8-46.49 7.1 7.11h-7.1zm161.12-16.979c-9 0-16.31 5.68-16.31 12.65 0 3.93 2.26 7.53 6.23 9.94v7.37l5.23-5.24c1.588.385 3.216.579 4.85.58 9 0 16.32-5.68 16.32-12.65s-7.32-12.65-16.32-12.65zm0 24a19.54 19.54 0 0 1 -4.89-.62l-.36-.1-3.53 3.54v-5l-.33-.19c-3.75-2.17-5.9-5.45-5.9-9 0-6.26 6.74-11.35 15-11.35s15 5.09 15 11.35-6.71 11.37-14.99 11.37z"/><path d="m300.61 286.604a3.158 3.158 0 0 0 -3.099 3.776 3.16 3.16 0 0 0 6.259-.616 3.167 3.167 0 0 0 -3.16-3.16zm0 5a1.862 1.862 0 0 1 -1.315-3.176 1.864 1.864 0 0 1 2.027-.403 1.864 1.864 0 0 1 .002 3.44 1.86 1.86 0 0 1 -.714.139z"/></g></svg>